<?xml version="1.0" encoding="UTF-8" standalone="no"?>
<!DOCTYPE svg PUBLIC "-//W3C//DTD SVG 1.1//EN" "http://www.w3.org/Graphics/SVG/1.1/DTD/svg11.dtd">
<svg xmlns="http://www.w3.org/2000/svg" version="1.1" viewBox="0 0 500 500" width="500.0pt" height="500.0pt">
<path d="M 0.00 0.00 L 500.00 0.00 L 500.00 500.00 L 345.35 500.00 C 346.46 499.21 347.61 498.46 348.78 497.75 C 374.26 483.18 399.72 468.55 425.03 453.70 C 410.22 445.30 395.65 436.44 380.72 428.26 C 368.79 421.25 356.85 414.25 344.90 407.27 C 344.87 435.18 344.91 463.09 344.88 491.00 C 344.82 494.01 344.97 497.00 345.15 500.00 L 206.01 500.00 C 232.66 484.59 259.37 469.28 285.96 453.75 C 271.01 445.12 256.17 436.26 241.07 427.91 C 229.37 421.02 217.67 414.13 205.95 407.27 C 205.91 438.18 205.96 469.09 205.92 500.00 L 0.00 500.00 L 0.00 0.00 Z" fill="#ffffff" />
<path d="M 396.81 0.03 C 401.53 2.74 406.24 5.48 410.93 8.25 C 406.25 11.01 401.55 13.77 396.81 16.45 C 396.77 10.98 396.79 5.50 396.81 0.03 Z" fill="#509afd" />
<path d="M 380.23 28.79 C 380.27 37.10 380.25 45.41 380.24 53.72 C 373.01 49.60 365.80 45.43 358.60 41.25 C 365.80 37.09 373.01 32.93 380.23 28.79 Z" fill="#509afd" />
<path d="M 432.88 44.02 C 432.88 53.93 432.88 63.83 432.88 73.74 C 424.29 68.85 415.69 63.95 407.14 59.00 C 415.67 53.93 424.27 48.96 432.88 44.02 Z" fill="#509afd" />
<path d="M 393.50 78.03 C 393.51 83.51 393.53 88.99 393.49 94.47 C 388.76 91.77 384.06 89.02 379.37 86.25 C 384.12 83.57 388.82 80.84 393.50 78.03 Z" fill="#509afd" />
<path d="M 344.91 92.03 C 357.54 99.55 370.24 106.93 382.99 114.26 C 370.30 121.57 357.64 128.94 344.92 136.18 C 344.86 121.46 344.89 106.74 344.91 92.03 Z" fill="#509afd" />
<path d="M 432.88 108.03 C 432.87 138.84 432.90 169.65 432.86 200.46 C 406.15 185.09 379.44 169.71 352.78 154.25 C 379.39 138.69 406.11 123.30 432.88 108.03 Z" fill="#509afd" />
<path d="M 257.75 119.79 C 262.43 122.58 267.12 125.32 271.86 128.00 C 267.19 130.79 262.47 133.50 257.75 136.22 C 257.72 130.75 257.72 125.26 257.75 119.79 Z" fill="#509afd" />
<path d="M 241.27 148.55 C 241.30 156.94 241.30 165.33 241.27 173.72 C 234.01 169.60 226.77 165.43 219.53 161.25 C 226.71 156.90 233.94 152.62 241.27 148.55 Z" fill="#509afd" />
<path d="M 293.81 163.79 C 293.82 173.69 293.83 183.59 293.80 193.49 C 285.17 188.53 276.60 183.48 267.95 178.56 C 276.43 173.41 285.12 168.59 293.81 163.79 Z" fill="#509afd" />
<path d="M 344.92 167.81 C 371.61 183.23 398.27 198.69 425.02 214.00 C 398.33 229.50 371.65 245.02 344.91 260.44 C 344.88 229.57 344.87 198.69 344.92 167.81 Z" fill="#509afd" />
<path d="M 254.54 197.80 C 254.57 203.27 254.56 208.74 254.54 214.21 C 249.81 211.53 245.11 208.79 240.44 206.00 C 245.17 203.32 249.86 200.57 254.54 197.80 Z" fill="#509afd" />
<path d="M 205.95 212.03 C 218.64 219.35 231.33 226.67 244.02 234.00 C 231.34 241.35 218.65 248.67 205.95 255.96 C 205.92 241.32 205.92 226.67 205.95 212.03 Z" fill="#509afd" />
<path d="M 293.81 227.79 C 293.82 258.60 293.82 289.41 293.81 320.22 C 267.08 304.86 240.38 289.44 213.70 274.00 C 240.44 258.65 267.13 243.24 293.81 227.79 Z" fill="#509afd" />
<path d="M 432.87 227.79 C 432.89 258.60 432.89 289.40 432.87 320.21 C 406.14 304.85 379.44 289.44 352.76 274.00 C 379.50 258.66 406.19 243.24 432.87 227.79 Z" fill="#509afd" />
<path d="M 118.80 239.55 C 123.48 242.34 128.16 245.09 132.93 247.74 C 128.24 250.52 123.51 253.25 118.79 255.97 C 118.77 250.50 118.76 245.02 118.80 239.55 Z" fill="#509afd" />
<path d="M 102.21 268.55 C 102.24 276.85 102.25 285.15 102.21 293.45 C 94.97 289.35 87.71 285.24 80.55 281.00 C 87.72 276.77 94.97 272.64 102.21 268.55 Z" fill="#509afd" />
<path d="M 154.84 283.51 C 154.87 293.41 154.86 303.32 154.85 313.22 C 146.19 308.37 137.62 303.38 128.96 298.53 C 137.55 293.47 146.22 288.52 154.84 283.51 Z" fill="#509afd" />
<path d="M 205.85 287.80 C 232.63 303.03 259.34 318.47 285.94 334.01 C 259.20 349.34 232.51 364.75 205.85 380.21 C 205.82 349.40 205.81 318.60 205.85 287.80 Z" fill="#509afd" />
<path d="M 344.92 287.81 C 371.71 303.02 398.39 318.49 425.01 334.00 C 398.27 349.32 371.60 364.76 344.92 380.18 C 344.87 349.39 344.87 318.60 344.92 287.81 Z" fill="#509afd" />
<path d="M 115.48 317.53 C 115.50 323.01 115.50 328.50 115.49 333.98 C 110.76 331.26 106.04 328.53 101.35 325.76 C 105.23 323.51 109.16 321.36 112.98 319.00 C 113.81 318.51 114.64 318.02 115.48 317.53 Z" fill="#509afd" />
<path d="M 67.01 331.78 C 79.65 339.13 92.30 346.46 104.97 353.75 C 92.33 361.09 79.68 368.42 67.00 375.72 C 67.00 361.07 66.98 346.43 67.01 331.78 Z" fill="#509afd" />
<path d="M 154.84 347.51 C 154.88 378.34 154.84 409.17 154.86 439.99 C 128.14 424.60 101.41 409.20 74.72 393.74 C 101.47 378.40 128.19 363.01 154.84 347.51 Z" fill="#509afd" />
<path d="M 293.80 347.52 C 293.84 378.34 293.79 409.16 293.83 439.98 C 267.10 424.61 240.38 409.21 213.70 393.74 C 240.43 378.39 267.15 363.01 293.80 347.52 Z" fill="#509afd" />
<path d="M 432.87 347.53 C 432.90 378.35 432.86 409.17 432.89 439.99 C 406.17 424.59 379.44 409.20 352.76 393.75 C 379.49 378.40 406.20 363.00 432.87 347.53 Z" fill="#509afd" />
<path d="M 67.01 407.53 C 93.75 422.82 120.39 438.27 147.02 453.74 C 120.45 469.25 93.80 484.60 67.00 499.71 C 67.00 468.98 66.98 438.26 67.01 407.53 Z" fill="#509afd" />
<path d="M 205.95 407.27 C 217.67 414.13 229.37 421.02 241.07 427.91 C 256.17 436.26 271.01 445.12 285.96 453.75 C 259.37 469.28 232.66 484.59 206.01 500.00 L 205.92 500.00 C 205.96 469.09 205.91 438.18 205.95 407.27 Z" fill="#509afd" />
<path d="M 344.90 407.27 C 356.85 414.25 368.79 421.25 380.72 428.26 C 395.65 436.44 410.22 445.30 425.03 453.70 C 399.72 468.55 374.26 483.18 348.78 497.75 C 347.61 498.46 346.46 499.21 345.35 500.00 L 345.15 500.00 C 344.97 497.00 344.82 494.01 344.88 491.00 C 344.91 463.09 344.87 435.18 344.90 407.27 Z" fill="#509afd" />
</svg>